<?xml version="1.0" standalone="no"?><!DOCTYPE svg PUBLIC "-//W3C//DTD SVG 1.1//EN" "http://www.w3.org/Graphics/SVG/1.1/DTD/svg11.dtd"><svg t="1527152454099" class="icon" style="" viewBox="0 0 1024 1024" version="1.1" xmlns="http://www.w3.org/2000/svg" p-id="1040" xmlns:xlink="http://www.w3.org/1999/xlink" width="200" height="200"><defs><style type="text/css"></style></defs><path d="M0.765478 698.621822a78.969103 78.969103 0 0 1 157.874521 0v241.365242a78.969103 78.969103 0 0 1-157.874521 0.031842V698.621822zM287.442427 509.478083a78.969103 78.969103 0 0 1 157.874521 0v430.540823a78.937261 78.937261 0 1 1-157.874521 0V509.478083zM860.796325 78.937261A78.969103 78.969103 0 0 1 939.733586 0v0.859744c43.592219 0 78.969103 34.485298 78.969103 78.109359v861.081646a78.937261 78.937261 0 1 1-157.906364 0V78.937261zM574.151219 299.382059a78.937261 78.937261 0 0 1 78.93726-78.937261v0.859745c43.592219 0 78.937261 34.485298 78.937261 78.109358v640.636848a78.937261 78.937261 0 1 1-157.874521 0V299.382059z" fill="#2c2c2c" p-id="1041"></path></svg>