<?xml version="1.0" standalone="no"?><!DOCTYPE svg PUBLIC "-//W3C//DTD SVG 1.1//EN" "http://www.w3.org/Graphics/SVG/1.1/DTD/svg11.dtd"><svg t="1527152444775" class="icon" style="" viewBox="0 0 1365 1024" version="1.1" xmlns="http://www.w3.org/2000/svg" p-id="820" xmlns:xlink="http://www.w3.org/1999/xlink" width="266.6015625" height="200"><defs><style type="text/css"></style></defs><path d="M710.826667 222.549333a737.28 737.28 0 0 1 507.989333 202.922667c10.325333 10.069333 26.88 9.984 37.034667-0.256l98.645333-99.584a27.477333 27.477333 0 0 0-0.256-38.912 929.877333 929.877333 0 0 0-1286.826667 0 27.477333 27.477333 0 0 0-0.256 38.912l98.645334 99.584c10.24 10.24 26.709333 10.325333 37.034666 0.256A737.365333 737.365333 0 0 1 710.826667 222.549333z m0 323.925334c103.936 0 204.117333 38.570667 281.088 108.373333a26.453333 26.453333 0 0 0 37.034666-0.512L1127.424 554.666667a27.477333 27.477333 0 0 0-0.341333-39.168 610.986667 610.986667 0 0 0-832.256 0 27.477333 27.477333 0 0 0-0.341334 39.168l98.474667 99.584a26.453333 26.453333 0 0 0 37.034667 0.426666 418.730667 418.730667 0 0 1 280.832-108.373333z m189.44 237.568a26.794667 26.794667 0 0 0-0.853334-38.997334 292.010667 292.010667 0 0 0-377.173333 0 26.794667 26.794667 0 0 0-0.768 38.997334l170.496 172.032a26.624 26.624 0 0 0 37.802667 0l170.410666-172.032z" p-id="821" fill="#2c2c2c"></path></svg>