<?xml version="1.0" standalone="no"?><!DOCTYPE svg PUBLIC "-//W3C//DTD SVG 1.1//EN" "http://www.w3.org/Graphics/SVG/1.1/DTD/svg11.dtd"><svg t="1527230964187" class="icon" style="" viewBox="0 0 1024 1024" version="1.1" xmlns="http://www.w3.org/2000/svg" p-id="6388" xmlns:xlink="http://www.w3.org/1999/xlink" width="200" height="200"><defs><style type="text/css"></style></defs><path d="M942.226286 566.857143a196.827429 196.827429 0 0 0-181.76 196.315428c0 29.696 9.728 58.441143 14.555428 70.729143l-113.078857 62.464a349.184 349.184 0 0 0-44.178286-38.985143c-38.4-28.525714-75.117714-42.934857-109.202285-42.934857-33.792 0-70.217143 14.189714-108.470857 42.130286a352.109714 352.109714 0 0 0-43.885715 38.326857l-108.909714-60.928c4.827429-12.288 14.628571-41.033143 14.628571-70.802286A196.754286 196.754286 0 0 0 80.091429 566.857143 546.011429 546.011429 0 0 1 71.68 485.961143c0-29.037714 5.851429-66.340571 8.411429-80.896A196.827429 196.827429 0 0 0 261.851429 208.676571c0-29.622857-9.728-58.294857-14.482286-70.656l115.858286-63.634285c4.096 4.242286 20.772571 20.772571 43.958857 37.302857 37.668571 26.843429 73.508571 40.448 106.642285 40.448 32.768 0 68.315429-13.312 105.764572-39.643429 22.820571-16.091429 39.497143-32.402286 43.666286-36.571428h0.073142l111.689143 62.025143a207.945143 207.945143 0 0 0-14.628571 70.729142 196.827429 196.827429 0 0 0 181.76 196.388572c2.56 14.628571 8.411429 52.077714 8.411428 80.896 0 28.891429-5.851429 66.267429-8.338285 80.896m69.485714-181.028572c-6.070857-31.670857-25.234286-51.931429-49.078857-51.931428h-5.266286a125.293714 125.293714 0 0 1-125.074286-125.220572c0-22.235429 10.752-47.469714 10.825143-47.689142a65.682286 65.682286 0 0 0-22.089143-79.36L692.443429 9.947429 691.053714 9.508571a72.557714 72.557714 0 0 0-78.409143 15.652572c-13.897143 14.336-61.952 55.296-98.816 55.296-37.302857 0-85.577143-41.764571-99.547428-56.393143A72.630857 72.630857 0 0 0 335.945143 7.753143l-132.681143 72.630857-1.828571 1.243429A65.536 65.536 0 0 0 179.2 160.914286c0.073143 0.219429 10.971429 25.234286 10.971429 47.762285 0 69.046857-56.246857 125.220571-125.220572 125.220572H60.708571c-24.356571-0.512-43.958857 19.748571-50.029714 51.931428C10.24 388.096 0 442.660571 0 485.961143c0 43.154286 10.24 97.792 10.678857 100.132571 5.997714 31.524571 25.234286 51.931429 49.005714 51.931429h5.266286c68.973714 0 125.147429 56.173714 125.147429 125.147428 0 22.381714-10.825143 47.542857-10.898286 47.762286a65.755429 65.755429 0 0 0 22.089143 79.36l126.171428 70.729143 1.316572 0.512a71.460571 71.460571 0 0 0 78.774857-16.457143c17.554286-19.236571 65.536-58.88 100.937143-58.88 38.326857 0 87.552 44.470857 101.741714 59.977143a71.314286 71.314286 0 0 0 78.628572 17.115429l130.267428-71.826286 1.828572-1.170286a65.609143 65.609143 0 0 0 22.162285-79.286857c-0.073143-0.292571-10.898286-25.234286-10.898285-47.835429 0-68.973714 56.173714-125.147429 125.220571-125.147428h4.242286c24.210286 0.365714 43.885714-19.894857 49.956571-51.931429 0.438857-2.340571 10.678857-56.905143 10.678857-100.205714 0-43.154286-10.24-97.792-10.678857-100.059429" fill="#ffffff" p-id="6389"></path><path d="M500.809143 585.142857c-59.245714 0-107.52-48.274286-107.52-107.52 0-59.318857 48.274286-107.52 107.52-107.52 59.318857 0 107.52 48.201143 107.52 107.52 0 59.245714-48.201143 107.52-107.52 107.52m0-285.696a178.322286 178.322286 0 0 0-178.102857 178.102857 178.322286 178.322286 0 0 0 178.102857 178.176A178.322286 178.322286 0 0 0 678.985143 477.622857a178.322286 178.322286 0 0 0-178.176-178.102857" fill="#ffffff" p-id="6390"></path></svg>