<?xml version="1.0" standalone="no"?><!DOCTYPE svg PUBLIC "-//W3C//DTD SVG 1.1//EN" "http://www.w3.org/Graphics/SVG/1.1/DTD/svg11.dtd"><svg t="1528441773120" class="icon" style="" viewBox="0 0 1024 1024" version="1.1" xmlns="http://www.w3.org/2000/svg" p-id="1071" xmlns:xlink="http://www.w3.org/1999/xlink" width="200" height="200"><defs><style type="text/css"></style></defs><path d="M512 1016.888889c-102.712889 0-156.444444-253.980444-156.444444-504.888889 0-250.894222 53.731556-504.888889 156.444444-504.888889s156.444444 253.994667 156.444444 504.888889c0 250.908444-53.731556 504.888889-156.444444 504.888889z m0-967.111111c-47.502222 0-113.777778 175.843556-113.777778 462.222222s66.275556 462.222222 113.777778 462.222222c47.516444 0 113.777778-175.843556 113.777778-462.222222s-66.261333-462.222222-113.777778-462.222222z" fill="#3CA7F5" p-id="1072"></path><path d="M859.776 802.005333c-97.692444 0-260.935111-59.207111-425.998222-154.524444-113.493333-65.507556-213.248-139.662222-280.903111-208.768C78.165333 362.382222 51.157333 300.444444 74.752 259.555556c14.378667-24.917333 44.487111-37.560889 89.472-37.560889 97.692444 0 260.920889 59.207111 425.998222 154.524444 217.272889 125.454222 410.368 298.979556 359.025778 387.925333-14.392889 24.917333-44.487111 37.560889-89.472 37.560889zM164.224 264.661333c-27.434667 0-46.563556 5.916444-52.522667 16.227556-9.173333 15.886222 4.096 58.936889 71.665778 127.971555 65.009778 66.417778 161.521778 138.040889 271.744 201.671112 156.558222 90.382222 315.406222 148.807111 404.664889 148.807111 27.434667 0 46.563556-5.916444 52.522667-16.227556 23.751111-41.144889-95.416889-186.439111-343.409778-329.642667-156.558222-90.396444-315.392-148.807111-404.664889-148.807111z" fill="#3CA7F5" p-id="1073"></path><path d="M164.224 802.005333c-44.984889 0-75.093333-12.643556-89.472-37.560889-51.342222-88.945778 141.738667-262.471111 359.025778-387.925333 165.063111-95.317333 328.305778-154.524444 425.998222-154.524444 44.984889 0 75.079111 12.629333 89.472 37.560889 51.342222 88.945778-141.752889 262.471111-359.025778 387.911111-165.063111 95.331556-328.305778 154.538667-425.998222 154.538666z m695.552-537.344c-89.258667 0-248.106667 58.410667-404.664889 148.792889C207.104 556.672 87.950222 701.966222 111.701333 743.111111c5.959111 10.311111 25.102222 16.227556 52.522667 16.227556 89.258667 0 248.106667-58.410667 404.664889-148.807111C816.896 467.342222 936.049778 322.033778 912.298667 280.888889c-5.944889-10.311111-25.088-16.227556-52.522667-16.227556z" fill="#3CA7F5" p-id="1074"></path><path d="M504.888889 526.222222m-56.888889 0a56.888889 56.888889 0 1 0 113.777778 0 56.888889 56.888889 0 1 0-113.777778 0Z" fill="#3CA7F5" p-id="1075"></path><path d="M504.888889 590.222222c-35.285333 0-64-28.714667-64-64s28.714667-64 64-64 64 28.714667 64 64-28.714667 64-64 64z m0-113.777778c-27.448889 0-49.777778 22.328889-49.777778 49.777778s22.328889 49.777778 49.777778 49.777778 49.777778-22.328889 49.777778-49.777778-22.328889-49.777778-49.777778-49.777778z" fill="#FFFFFF" p-id="1076"></path></svg>