<?xml version="1.0" standalone="no"?><!DOCTYPE svg PUBLIC "-//W3C//DTD SVG 1.1//EN" "http://www.w3.org/Graphics/SVG/1.1/DTD/svg11.dtd"><svg t="1528441783332" class="icon" style="" viewBox="0 0 1024 1024" version="1.1" xmlns="http://www.w3.org/2000/svg" p-id="1199" xmlns:xlink="http://www.w3.org/1999/xlink" width="200" height="200"><defs><style type="text/css"></style></defs><path d="M519.168 489.30133334c-125.952 0-228.352 102.4-228.352 228.352s102.4 228.352 228.352 228.352 228.352-102.4 228.352-228.352-101.888-228.352-228.352-228.352m74.24 339.968l-80.384-41.984-80.384 41.984 15.36-89.088-65.024-63.488 89.6-12.8 39.936-81.408 39.936 81.408 89.6 13.312-65.024 62.976 16.384 89.088z" fill="#358DF7" p-id="1200"></path><path d="M780.8 88.40533334H260.096c-20.992 0-37.888 16.896-37.888 37.888v157.696c0 10.752 5.12 20.992 13.312 27.648l150.016 118.784c6.144 5.12 13.824 7.68 22.016 7.68H645.12c8.704 0 16.896-3.072 23.552-8.704l135.168-117.76c7.68-6.656 12.288-16.384 12.288-26.624V124.24533334c0-19.456-15.872-35.84-35.328-35.84M428.032 392.53333334h-6.144c-8.192 0-15.872-3.072-22.528-7.68l-16.384-13.312c-0.512-0.512-1.024-1.024-1.024-1.536V136.53333334c0-1.024 1.024-2.048 2.048-2.048h40.96c1.024 0 2.048 1.024 2.048 2.048v256h1.024z m227.328-9.216c-7.168 6.144-15.872 9.216-25.088 9.216h-17.408c-1.024 0-2.048-1.024-2.048-2.048V136.53333334c0-1.024 1.024-2.048 2.048-2.048h40.96c1.024 0 2.048 1.024 2.048 2.048v245.248c0.512 0.512 0 1.024-0.512 1.536" fill="#71B8FF" p-id="1201"></path></svg>