<?xml version="1.0" standalone="no"?><!DOCTYPE svg PUBLIC "-//W3C//DTD SVG 1.1//EN" "http://www.w3.org/Graphics/SVG/1.1/DTD/svg11.dtd"><svg t="1528441765602" class="icon" style="" viewBox="0 0 1024 1024" version="1.1" xmlns="http://www.w3.org/2000/svg" p-id="931" xmlns:xlink="http://www.w3.org/1999/xlink" width="200" height="200"><defs><style type="text/css"></style></defs><path d="M523 156.244c0 5.388-4.368 9.756-9.756 9.756h-0.487c-5.388 0-9.756-4.368-9.756-9.756V74.756c0-5.388 4.368-9.756 9.756-9.756h0.487c5.388 0 9.756 4.368 9.756 9.756v81.488zM424.559 168.954c0.968 5.49-2.698 10.725-8.187 11.692-5.49 0.968-10.725-2.698-11.693-8.187L390.658 92.94c-0.968-5.49 2.698-10.725 8.187-11.692 5.49-0.968 10.725 2.698 11.693 8.187l14.021 79.519zM328.907 192.482c1.907 5.238-0.794 11.03-6.032 12.937-5.238 1.907-11.03-0.794-12.937-6.032l-27.617-75.876c-1.907-5.238 0.794-11.03 6.032-12.937 5.238-1.907 11.03 0.794 12.937 6.032l27.617 75.876zM238.794 232.264c2.787 4.827 1.133 11-3.694 13.788-4.827 2.787-11 1.133-13.788-3.694l-40.373-69.927c-2.787-4.827-1.133-11 3.694-13.788 4.827-2.787 11-1.133 13.788 3.694l40.373 69.927zM156.958 287.089c3.583 4.27 3.026 10.636-1.244 14.22-4.27 3.583-10.636 3.026-14.22-1.244L89.592 238.21c-3.583-4.27-3.026-10.636 1.244-14.22 4.27-3.583 10.636-3.026 14.22 1.244l51.902 61.855zM934.084 223.77c4.27 3.583 4.827 9.949 1.244 14.22l-51.902 61.855c-3.583 4.27-9.949 4.827-14.22 1.244-4.27-3.583-4.827-9.949-1.244-14.22l51.902-61.855c3.583-4.27 9.95-4.827 14.22-1.244zM840.21 157.988c4.828 2.787 6.482 8.96 3.694 13.788l-40.373 69.927c-2.787 4.827-8.96 6.482-13.788 3.694-4.828-2.787-6.482-8.96-3.694-13.788l40.373-69.928c2.787-4.826 8.96-6.48 13.788-3.693zM736.339 109.506c5.238 1.907 7.939 7.698 6.032 12.937l-27.617 75.876c-1.906 5.238-7.698 7.939-12.937 6.032-5.238-1.907-7.939-7.698-6.032-12.937l27.617-75.876c1.907-5.238 7.699-7.938 12.937-6.032zM625.628 79.798c5.49 0.968 9.155 6.203 8.187 11.692l-14.021 79.519c-0.968 5.49-6.203 9.155-11.693 8.187-5.49-0.968-9.155-6.203-8.187-11.692l14.021-79.519c0.968-5.489 6.203-9.155 11.693-8.187z" fill="#2537EC" p-id="932"></path><path d="M405.723 897.054c-4.593 0-9.009-2.208-11.818-5.914-2.78-3.667-3.706-8.546-2.474-13.05l16.884-60.884c1.774-6.427 7.659-10.911 14.292-10.911h47.519a7.572 7.572 0 0 0 7.57-7.57v-72.426c9.876 1.281 19.753 1.932 29.452 1.932s19.555-0.651 29.432-1.932v72.426a7.572 7.572 0 0 0 7.57 7.57h47.568c6.614 0 12.488 4.495 14.282 10.921l16.135 58.203c1.065 2.701 1.449 4.652 1.449 6.703 0 8.23-6.653 14.933-14.824 14.933H405.723z" fill="#77B9FC" p-id="933"></path><path d="M770.725 387.37c-3.205-5.677-9.124-8.891-15.235-8.891-2.729 0-5.496 0.641-8.078 1.99-23.918 12.494-52.012 19.1-81.248 19.1-30.535 0-59.717-7.227-84.391-20.901a17.402 17.402 0 0 0-8.456-2.193c-5.995 0-11.822 3.089-15.074 8.611-13.157 22.344-20.112 48.2-20.112 74.775 0 76.062 56.401 137.944 125.726 137.944s125.726-61.882 125.726-137.944c0-25.56-6.521-50.627-18.858-72.491zM663.858 580.329c-59.785 0-108.25-53.935-108.25-120.469 0-24.343 6.539-46.961 17.696-65.906 26.095 14.461 58.12 23.09 92.862 23.09 33.164 0 63.913-7.803 89.34-21.086 10.459 18.537 16.602 40.397 16.602 63.902 0 66.534-48.466 120.469-108.25 120.469zM467.93 387.37c-3.205-5.677-9.124-8.891-15.235-8.891-2.729 0-5.496 0.641-8.077 1.99-23.918 12.494-52.012 19.1-81.248 19.1-30.535 0-59.717-7.227-84.391-20.901a17.402 17.402 0 0 0-8.456-2.193c-5.995 0-11.822 3.089-15.074 8.611-13.157 22.344-20.112 48.2-20.112 74.775 0 76.062 56.401 137.944 125.726 137.944s125.726-61.882 125.726-137.944c0-25.56-6.522-50.627-18.859-72.491zM361.063 580.329c-59.785 0-108.25-53.935-108.25-120.469 0-24.343 6.539-46.961 17.696-65.906 26.095 14.461 58.119 23.09 92.862 23.09 33.164 0 63.913-7.803 89.34-21.086 10.459 18.537 16.602 40.397 16.602 63.902 0 66.534-48.466 120.469-108.25 120.469z" fill="#2537EC" p-id="934"></path><path d="M657.155 328H372.968c-22.297 0-40.373-8.389-40.373 13.909 0 0-1.78 198.727-1.78 201.474 0 77.872 94.197 133.295 174.942 135.33 0 0.027 0 0.027 0 0 100.932-2.035 184.246-65.49 184.246-143.362 0-2.746 5.001-192.104 5.001-192.104 0-22.297-15.552-15.247-37.849-15.247z" fill="#B9E8FE" p-id="935"></path><path d="M621.498 852H399.763l-8.516 20H626.86z" fill="#2537EC" p-id="936"></path><path d="M477.696 778.075h69.284v20.186h-69.284z" fill="#FEC849" p-id="937"></path><path d="M477.696 757.889h69.284v20.186h-69.284z" fill="#FD3B86" p-id="938"></path><path d="M589.101 506.791l-44.483 33.518 16.176 53.028a5.064 5.064 0 0 1-1.851 5.565 5.091 5.091 0 0 1-2.957 0.97 4.908 4.908 0 0 1-2.846-0.891l-45.892-31.701-45.885 31.701c-1.743 1.228-4.105 1.18-5.834-0.079a5.066 5.066 0 0 1-1.816-5.565l16.141-53.035-44.472-33.511a5.08 5.08 0 0 1-1.771-5.606 5.048 5.048 0 0 1 4.69-3.49l55.853-1.123 18.358-52.405a5.003 5.003 0 0 1 4.735-3.362 5.007 5.007 0 0 1 4.736 3.362l18.351 52.405 55.84 1.123a5.06 5.06 0 0 1 4.704 3.49c0.644 2.05-0.048 4.315-1.777 5.606z" fill="#FFFFFF" p-id="939"></path><path d="M488.105 734.765a233.461 233.461 0 0 0 21.874 1.038c7.222 0 14.531-0.348 21.861-1.038v63.962c0 8.361 6.778 15.14 15.14 15.14h47.568c3.237 0 6.115 2.212 6.992 5.361l16.135 58.21c0.171 0.616 0.38 1.221 0.627 1.81 0.366 0.871 0.551 1.837 0.551 2.87 0 4.061-3.256 7.364-7.257 7.364H408.563c-2.273 0-4.386-1.065-5.785-2.909-1.372-1.81-1.823-4.235-1.222-6.435l16.887-60.916c0.872-3.153 3.75-5.356 6.996-5.356h47.526c8.361 0 15.14-6.778 15.14-15.14v-63.961m58.875-17.249c-12.052 2.034-24.412 3.148-37 3.148-12.592 0-24.957-1.113-37.014-3.148v81.211H425.44c-10.07 0-18.896 6.732-21.588 16.457l-16.885 60.91c-1.852 6.774-0.489 14.036 3.744 19.622 4.259 5.609 10.847 8.906 17.853 8.906h203.033c12.374 0 22.397-10.079 22.397-22.504 0-3.091-0.606-6.047-1.728-8.724l-16.135-58.21c-2.709-9.725-11.517-16.457-21.582-16.457H546.98v-81.211z" fill="#2537EC" p-id="940"></path><path d="M339.443 321.78H689.55v59.718H339.443z" fill="#77B9FC" p-id="941"></path><path d="M505.761 691h-0.256c-87.399-20-184.782-64.033-184.782-147.291 0-2.75 1.774-203.27 1.774-203.27 0-17.752 9.61-27.139 28.564-27.139 3.134 0 322.212-1.595 324.864-1.595 7.215 0 29.176 0.791 29.176 28.567-1.715 65.773-4.968 192.347-5.007 195.827 0 82.273-87.083 134.902-194.126 154.902l-0.207-0.001zM351.062 333.148c-8.378 0-8.378 0.503-8.378 6.702 0 0.089-1.774 199.31-1.774 202.504 0 69.529 86.994 123.691 164.881 125.751 96.023-2.03 174.117-61.663 174.117-133.015 0-2.789 4.495-174.698 5.007-194.293 0-7.038 0-7.323-8.989-7.323-2.405-0.001-322.085-0.326-324.864-0.326z" fill="#2537EC" p-id="942"></path><path d="M342 368h343v20H342z" fill="#2537EC" p-id="943"></path><path d="M642.482 926.196a25.188 25.188 0 0 1-13.015 3.604h-81.255c0.186 0.206 0.363 0.407 0.555 0.612 9.254 9.908 22.804 20.076 39.173 25.091 8.197 2.526 16.345 3.647 24.063 3.909a112.903 112.903 0 0 0 5.703 0.04c1.872-0.039 3.714-0.12 5.507-0.245 3.599-0.244 7.038-0.65 10.263-1.163 12.871-2.061 22.427-5.746 24.029-8.602 2.087-3.115-3.219-12.934-15.023-23.246zM382.125 926.196c-11.995 10.417-17.392 20.374-15.291 23.522 1.602 2.857 11.143 6.541 24.005 8.607 3.22 0.512 6.656 0.915 10.245 1.164 1.798 0.124 3.631 0.206 5.502 0.244a111.906 111.906 0 0 0 5.694-0.038c7.713-0.263 15.848-1.383 24.034-3.915 16.35-5.013 29.882-15.191 39.126-25.111 0.216-0.224 0.411-0.454 0.622-0.679h-80.649a25.224 25.224 0 0 1-13.288-3.794z" fill="#2537EC" p-id="944"></path><path d="M291.49 882.704c-26.051 0-49.874-9.452-58.174-14.755 6.712-5.579 26.357-15.357 54.251-17.555 3.016-0.237 5.993-0.345 8.92-0.345 3.736 0 7.383 0.177 10.911 0.493l30.368 2.73a650.114 650.114 0 0 0 10.448 4.978l-2.04 7.363c-8.595 6.574-27.106 16.303-50.19 16.993l-4.494 0.098z m61.545-41.851c-5.658-5.894-11.789-13.839-16.362-23.853-12.557-27.805-4.258-58.795-0.03-62.895 3.854 0.72 23.981 12.715 35.73 35.592-4.445 4.012-7.728 9.255-9.334 15.081l-10.004 36.075z m-135.331-21.596c-9.167 0-18.126-1.252-26.652-3.736-29.146-8.181-50.062-30.043-55.798-38.983 3.677-1.114 10.537-2.316 20.65-2.316 8.832 0 22.907 0.946 39.771 5.441 8.989 2.494 17.998 6.042 26.702 10.537l34.597 17.85-1.685 2.927c-2.082 1.972-16.975 8.28-37.585 8.28z m49.628-9.699l-6.978-7.373-1.843 3.194-27.313-27.263c-11.453-11.443-21.694-23.656-30.427-36.302l-13.799-19.989v0.079l-11.769-26.692a232.287 232.287 0 0 1-8.93-23.715c4.297 11.808 9.226 23.232 14.745 34.114l12.932 25.519 1.38-28.574c0.542-11.286 2.947-22.138 7.136-32.271 12.439-30.043 37.603-50.249 46.553-53.728 4.031 8.329 7.885 38.48-4.307 68.701-9.472 23.39-26.012 40.107-38.322 47.952l-6.742 4.297 4.662 6.505c10.261 14.312 21.99 27.943 34.863 40.501l18.304 17.87-5.638-24.957c-1.902-8.418-2.464-16.894-1.685-25.213 2.908-30.634 22.788-55.512 30.112-60.431 5.993 5.944 18.097 31.797 14.854 62.205-3.016 27.352-16.618 45.626-20.719 50.574l-5.096 6.17 0.552 0.404-0.749 0.089c-0.406-0.325-1.007-0.858-1.776-1.666z m-84.797-66.039c-13.888 0-36.913-6.082-56.074-23.202-24.208-21.487-35.72-49.746-38.165-60.943 11.828 1.676 35.632 10.359 58.341 28.446 5.51 4.495 10.901 9.719 15.958 15.455l24.375 27.667v12.311c-1.083 0.148-2.552 0.266-4.435 0.266zM154.523 648.6c-10.113-0.493-37.79-13.474-55.946-41.27-13.07-19.625-17.752-38.805-19.388-48.495-1.055-6.318-1.449-12.301-1.094-16.855 0.069-0.936 0.168-1.715 0.266-2.336 9.265 2.198 34.38 15.071 53.196 41.654a115.542 115.542 0 0 1 7.53 12.36l11.394 21.556 2.188 18.284 9.876-40.866c1.488-6.121 3.479-12.064 5.924-17.653 13.336-30.329 37.347-49.766 46.237-53.344 3.41 8.516 7.609 39.476-5.934 71.904-11.7 27.983-32.901 45.902-44.296 51.116l-5.993 2.74 0.424 1.419-4.384-0.214z m-5.441-98.793c-9.216-6.959-26.495-30.891-29.984-61.476-3.716-33.227 8.437-61.929 14.125-70.002 0.296 0.246 0.621 0.532 0.986 0.877 2.957 2.72 6.358 7.008 9.59 12.084 5.047 7.925 13.987 24.582 17.219 47.075 4.919 33.829-6.426 63.133-11.936 71.442z" fill="#77B9FC" p-id="945"></path><path d="M134.793 431.479a79.738 79.738 0 0 1 2.616 3.861c4.716 7.422 13.082 23.021 16.121 44.134 3.421 23.528-1.765 45.469-6.429 57.552-7.851-9.8-18.002-27.864-20.473-49.522-2.555-22.822 3.089-44.006 8.165-56.025m74.98 102.136c1.656 12.641 1.279 34.837-7.975 57.005-10.513 25.135-29.534 41.741-39.677 46.776l-0.248-9.768 8.037-33.204c1.387-5.732 3.235-11.248 5.486-16.381 9.449-21.491 24.509-36.875 34.377-44.428M85.77 550.698c10.408 5.336 26.5 16.46 39.566 34.906a109.397 109.397 0 0 1 7.054 11.591l10.765 20.38 2.475 20.606c-10.801-4.677-27.967-15.47-40.795-35.106-12.247-18.392-16.645-36.405-18.179-45.512a85.902 85.902 0 0 1-0.886-6.865m158.532 77.594c1.865 11.87 1.958 32.899-6.605 54.109-8.824 21.772-24.57 37.543-35.374 44.433l-0.59 0.376 1.162-24.299c0.497-10.392 2.705-20.398 6.555-29.725 8.89-21.457 24.724-37.312 34.852-44.894M99.814 670.085c11.24 3.983 26.892 11.539 41.961 23.541 5.268 4.296 10.357 9.223 15.127 14.645l22.437 25.5 0.01 2.065c-12.709-0.85-31.684-6.725-47.88-21.193-15.961-14.172-26.294-31.952-31.655-44.558m179.084 33.433c4.957 9.776 10.948 28.482 8.705 49.604-2.219 20.1-11.287 37.26-19.033 46.616l-0.043 0.052-5.1-5.396-4.208-18.64c-1.722-7.626-2.237-15.31-1.533-22.819 2.069-21.79 13.436-40.323 21.212-49.417m61.112 61.574c6.247 3.745 15.735 11.429 23.059 23.462a39.177 39.177 0 0 0-7.325 14.193l-6.087 21.959a74.818 74.818 0 0 1-6.074-10.794c-8.311-18.414-6.41-38.523-3.573-48.82m-184.099 16.699c8.379 0 21.742 0.9 37.679 5.149 8.54 2.365 17.056 5.723 25.313 9.983l22.453 11.583c-5.84 1.674-13.998 3.186-23.652 3.186-8.448 0-16.704-1.157-24.682-3.481-19.045-5.345-34.483-17.078-43.553-26.233 1.931-0.117 4.076-0.187 6.442-0.187m140.579 75.825c3.501 0 6.92 0.166 10.227 0.466l29.053 2.634a530.7 530.7 0 0 0 2.517 1.215c-8.676 5.677-23.947 12.552-42.714 13.124a97.146 97.146 0 0 1-4.069 0.085c-16.308 0-31.428-3.909-41.849-7.826 8.82-3.935 21.926-8.069 38.491-9.377 2.823-0.22 5.609-0.321 8.344-0.321M132.257 409.581c-0.225 0-0.437 0.027-0.639 0.077-6.631 1.919-24.585 38.877-20.035 79.53 3.962 34.732 24.555 61.485 34.737 67.909-0.352 7.264-0.904 18.759-0.542 33.026a123.689 123.689 0 0 0-8.039-13.204c-21.195-29.921-51.46-45.192-61.647-45.193-1.152 0-2.046 0.195-2.642 0.586-1.475 1.021-2.529 4.26-2.905 9.087-0.375 4.831-0.068 11.26 1.185 18.683 2.494 14.815 8.772 33.764 20.505 51.384 19.881 30.435 50.154 44.119 61.92 44.689 3.32 13.766 7.89 27.988 14.114 42.115-4.963-5.641-10.595-11.213-16.924-16.376-26.14-20.821-54.766-30.45-65.944-30.45-2.361 0-3.943 0.429-4.559 1.273-3.71 4.886 9.581 45.725 40.577 73.247 21.541 19.243 46.692 25.122 61.114 25.122 6.245 0 10.478-1.102 11.535-2.699 0.321-0.492 0.48-1.266 0.475-2.274 8.916 12.919 19.366 25.435 31.303 37.355-8.392-4.329-17.905-8.264-28.214-11.118-15.465-4.123-29.919-5.697-41.719-5.698-17.572 0-29.261 3.49-29.651 7.249-0.954 6.486 25.197 38.37 62.67 48.887 9.97 2.904 19.762 4.044 28.773 4.044 23.436 0 41.62-7.699 44.138-12.074 2.506 2.651 4.691 4.125 6.112 4.207 0.035 0.003 0.072 0.004 0.109 0.004 0.115 0 0.237-0.013 0.356-0.023 12.278 8.577 25.508 16.625 39.664 24.057-3.75-0.34-7.625-0.527-11.594-0.527-3.117 0-6.291 0.116-9.509 0.364-38.966 3.076-65.071 20.659-63.026 26.414 1.661 5.783 33.343 21.024 67.55 21.024 1.565 0 3.132-0.032 4.705-0.098 25.581-0.778 46.742-11.811 56.608-20.199l17.516-63.19a23.991 23.991 0 0 1 11.54-14.63c-12.001-28.493-37.461-44.847-47.015-44.847-0.858 0-1.586 0.132-2.166 0.398-7.292 3.412-17.28 40.586-2.909 72.428 6.392 13.996 15.941 25.043 25.083 32.837a583.7 583.7 0 0 1-29.448-14.462c-14.566-8.288-29.906-17.842-45.187-29.124 9.093-10.983 19.769-30.602 22.419-54.609 3.985-37.52-13.965-70.714-21.758-71.206a2.578 2.578 0 0 0-0.177-0.005c-7.897-0.001-34.569 30.739-38.103 67.932-0.927 9.893-0.054 19.208 1.837 27.585-11.952-11.671-23.429-24.753-33.986-39.49 12.662-8.075 30.873-25.871 41.265-51.511 15.23-37.727 7.45-76.766 0.285-79.421-0.35-0.129-0.766-0.193-1.243-0.193-9.148-0.001-40.623 23.472-55.307 58.918-4.962 12.019-7.174 23.989-7.691 34.796-7.798-15.38-14.615-32.204-20.138-50.651 12.644-5.786 35.515-24.917 48.13-55.076 16.272-38.98 9.184-79.665 2.357-82.715-0.396-0.177-0.884-0.264-1.451-0.264-9.142-0.002-39.37 22.614-55.135 58.465-2.769 6.315-4.832 12.675-6.341 18.913-1.286-10.703-2.176-21.849-2.66-33.434 7.482-6.632 21.505-42.115 15.978-80.131-2.982-20.714-10.74-38.139-18.326-50.076-3.805-5.972-7.59-10.581-10.848-13.585-1.628-1.502-3.125-2.605-4.433-3.279-0.651-0.335-1.257-0.565-1.809-0.683a4.07 4.07 0 0 0-0.787-0.09h-0.053z" fill="#2537EC" p-id="946"></path><path d="M728.444 882.615c-23.163-0.7-41.684-10.428-50.279-17.003l-2.04-7.363a552.553 552.553 0 0 0 10.468-4.987l30.339-2.72c3.529-0.315 7.185-0.493 10.921-0.493 2.918 0 5.894 0.108 8.91 0.345 28.288 2.228 48.09 12.252 54.537 17.791-7.323 4.564-31.709 14.519-58.45 14.519l-4.406-0.089zM661.3 804.768c-1.607-5.815-4.889-11.059-9.334-15.071 11.749-22.867 32.004-34.814 37.514-34.814 2.444 3.322 10.744 34.311-1.823 62.146-4.573 9.995-10.694 17.939-16.352 23.823L661.3 804.768z m145.336 14.489c-20.61 0-35.503-6.308-37.958-8.812l-1.37-2.375 34.656-17.87c8.703-4.495 17.703-8.043 26.761-10.556 16.805-4.475 30.871-5.421 39.702-5.421 10.487 0 17.476 1.291 21.044 2.435-5.017 7.639-26.248 30.457-56.114 38.845-8.595 2.502-17.554 3.754-26.721 3.754z m-52.181-8.102l0.582-0.424-5.096-6.17c-4.1-4.948-17.702-23.222-20.728-50.604-3.233-30.388 8.871-56.232 14.864-62.175 7.333 4.918 27.204 29.797 30.112 60.441 0.779 8.309 0.217 16.786-1.685 25.203l-5.638 24.957 18.304-17.87c12.883-12.567 24.602-26.199 34.853-40.511l4.652-6.495-6.732-4.288c-12.311-7.856-28.84-24.582-38.313-47.972-12.212-30.25-8.329-60.441-4.297-68.72 8.772 3.381 34.055 23.607 46.543 53.768 4.189 10.123 6.594 20.975 7.136 32.261l1.38 28.574 12.932-25.519c5.52-10.882 10.448-22.305 14.745-34.114a232.287 232.287 0 0 1-8.93 23.715L836.7 723.431l-0.01-0.296-13.119 18.678c-8.733 12.646-18.974 24.858-30.427 36.302l-27.362 27.313-2.178-3.785-6.594 7.915c-0.789 0.828-1.39 1.36-1.804 1.685l-0.751-0.088z m87.349-67.636c-1.932 0-3.43-0.128-4.524-0.276l-0.345-11.808 24.809-28.16c5.056-5.737 10.448-10.961 16.037-15.514 23.133-18.422 47.469-27.086 58.292-28.525-2.375 11.099-13.878 39.495-38.175 61.072-19.181 17.129-42.206 23.211-56.094 23.211z m24.051-96.122l-5.993-2.74c-11.394-5.214-32.596-23.133-44.296-51.116-13.553-32.458-9.334-63.437-5.934-71.933 8.753 3.499 32.862 22.956 46.237 53.383 2.444 5.579 4.435 11.522 5.924 17.643l9.876 40.866 2.188-18.284 11.394-21.556a116 116 0 0 1 7.55-12.39c18.856-26.623 44.039-39.495 53.167-41.644 0.108 0.631 0.207 1.409 0.276 2.356 0.355 4.554-0.039 10.537-1.094 16.845-1.636 9.699-6.318 28.88-19.349 48.445-18.195 27.855-45.873 40.836-55.986 41.329l-4.386 0.217 0.426-1.421z m9.403-97.59c-5.51-8.309-16.855-37.613-11.936-71.421 3.233-22.513 12.173-39.17 17.219-47.105 3.233-5.066 6.633-9.354 9.581-12.074 0.542-0.493 0.995-0.877 1.39-1.183 4.455 6.456 17.564 35.977 13.73 70.327-3.5 30.575-20.768 54.497-29.984 61.456z" fill="#77B9FC" p-id="947"></path><path d="M889.547 431.479c5.076 12.017 10.719 33.194 8.167 55.993-2.468 21.637-12.583 39.677-20.427 49.492-4.763-12.233-9.883-34.081-6.476-57.511 3.036-21.092 11.402-36.691 16.11-44.1a80.752 80.752 0 0 1 2.626-3.874m-74.981 102.136c9.868 7.553 24.926 22.933 34.371 44.413 2.257 5.147 4.105 10.663 5.492 16.395l8.035 33.196-0.249 9.775c-10.143-5.036-29.161-21.641-39.67-46.764-9.256-22.174-9.634-44.373-7.979-57.015m124.006 17.043a85.432 85.432 0 0 1-0.892 6.912c-1.531 9.1-5.929 27.113-18.251 45.616-12.774 19.553-29.922 30.324-40.719 34.995l2.475-20.612 10.763-20.375c2.166-4.1 4.54-8 7.007-11.524 13.135-18.542 29.291-29.692 39.617-35.012m-158.536 77.634c10.13 7.582 25.962 23.434 34.845 44.878 3.858 9.343 6.065 19.349 6.562 29.74l1.161 24.298-0.588-0.375c-10.804-6.89-26.551-22.661-35.367-44.414-8.568-21.223-8.478-42.256-6.613-54.127m144.483 41.807c-5.365 12.608-15.706 30.388-31.683 44.574-16.165 14.44-35.136 20.313-47.846 21.163l0.01-2.066 22.436-25.499c4.769-5.42 9.859-10.347 14.991-14.535 15.146-12.064 30.818-19.643 42.092-23.637m-179.078 33.42c7.776 9.093 19.143 27.622 21.211 49.399 0.705 7.528 0.19 15.211-1.531 22.837l-4.208 18.64-5.1 5.396-0.043-0.052c-7.746-9.357-16.814-26.516-19.026-46.553-2.25-21.17 3.74-39.888 8.697-49.667m-61.148 61.442c2.857 10.256 4.815 30.447-3.509 48.89a75.296 75.296 0 0 1-6.104 10.851l-6.082-21.942a39.206 39.206 0 0 0-7.331-14.206c7.415-12.196 17.015-19.919 23.026-23.593m184.135 16.83c2.364 0 4.508 0.07 6.438 0.187-9.081 9.157-24.553 20.901-43.693 26.274-7.835 2.282-16.091 3.44-24.539 3.44-9.653 0-17.81-1.512-23.651-3.186l22.453-11.583c8.255-4.259 16.772-7.617 25.172-9.945 16.08-4.288 29.442-5.187 37.82-5.187m-140.579 75.825c2.735 0 5.52 0.101 8.318 0.317 16.581 1.309 29.694 5.443 38.517 9.379-10.42 3.917-25.542 7.826-41.848 7.826-1.352 0-2.711-0.027-4.245-0.091-18.622-0.567-33.867-7.441-42.539-13.118a577.01 577.01 0 0 0 2.514-1.214l29.057-2.634c3.307-0.299 6.725-0.465 10.226-0.465m164.233-448.035l-0.053 0.001a4.14 4.14 0 0 0-0.787 0.09c-0.551 0.118-1.158 0.349-1.809 0.683-1.307 0.674-2.805 1.778-4.433 3.279-3.258 3.004-7.043 7.613-10.847 13.585-7.587 11.937-15.344 29.362-18.326 50.076-5.528 38.016 8.495 73.499 15.978 80.131-0.484 11.585-1.375 22.731-2.66 33.434-1.51-6.238-3.572-12.598-6.341-18.913-15.763-35.849-45.99-58.465-55.135-58.465-0.568 0-1.054 0.087-1.451 0.264-6.827 3.049-13.915 43.735 2.356 82.715 12.616 30.159 35.487 49.29 48.131 55.076-5.523 18.446-12.34 35.271-20.139 50.651-0.516-10.807-2.728-22.776-7.691-34.796-14.682-35.444-46.157-58.916-55.307-58.918-0.477 0-0.893 0.064-1.243 0.193-7.166 2.656-14.946 41.694 0.285 79.421 10.391 25.64 28.603 43.436 41.265 51.511-10.558 14.737-22.034 27.82-33.986 39.49 1.891-8.377 2.764-17.691 1.836-27.585-3.532-37.191-30.203-67.929-38.102-67.932-0.06 0-0.119 0.002-0.177 0.005-7.794 0.492-25.744 33.686-21.759 71.206 2.651 24.006 13.327 43.626 22.42 54.609-15.281 11.282-30.621 20.836-45.187 29.124a582.865 582.865 0 0 1-29.448 14.462c9.141-7.795 18.691-18.841 25.083-32.837 14.372-31.842 4.383-69.016-2.909-72.428-0.58-0.266-1.31-0.398-2.166-0.398-9.552 0-35.014 16.352-47.015 44.847a23.985 23.985 0 0 1 11.54 14.63l17.515 63.19c9.866 8.388 31.028 19.42 56.609 20.199 1.572 0.066 3.142 0.098 4.705 0.098 34.209 0 65.888-15.241 67.55-21.024 2.045-5.755-24.061-23.338-63.027-26.414a123.785 123.785 0 0 0-9.509-0.364c-3.969 0-7.844 0.188-11.594 0.527 14.155-7.432 27.385-15.481 39.663-24.057 0.12 0.01 0.242 0.023 0.357 0.023 0.037 0 0.074-0.001 0.109-0.004 1.421-0.082 3.606-1.556 6.112-4.207 2.518 4.374 20.705 12.074 44.138 12.074 9.013 0 18.801-1.139 28.773-4.044 37.473-10.517 63.624-42.401 62.67-48.887-0.39-3.759-12.081-7.249-29.65-7.249-11.801 0-26.252 1.574-41.719 5.698-10.309 2.855-19.822 6.789-28.213 11.118 11.937-11.92 22.387-24.436 31.303-37.355-0.005 1.009 0.154 1.782 0.474 2.274 1.057 1.596 5.292 2.699 11.535 2.699 14.421 0 39.571-5.877 61.114-25.122 30.996-27.521 44.287-68.361 40.577-73.247-0.617-0.844-2.199-1.273-4.559-1.273-11.177-0.001-39.803 9.628-65.945 30.45-6.329 5.162-11.96 10.735-16.924 16.376 6.224-14.127 10.794-28.349 14.115-42.115 11.766-0.57 42.038-14.254 61.919-44.689 11.734-17.62 18.012-36.569 20.505-51.384 1.253-7.423 1.56-13.851 1.185-18.683-0.376-4.827-1.429-8.066-2.905-9.087-0.596-0.391-1.491-0.586-2.642-0.586-10.185-0.001-40.451 15.27-61.647 45.193a123.852 123.852 0 0 0-8.039 13.204c0.363-14.267-0.19-25.762-0.542-33.026 10.181-6.424 30.774-33.177 34.737-67.909 4.55-40.653-13.404-77.611-20.035-79.53-0.2-0.05-0.413-0.078-0.638-0.078z" fill="#2537EC" p-id="948"></path></svg>